<?xml version="1.0" encoding="UTF-8" standalone="no"?>
<!DOCTYPE svg PUBLIC "-//W3C//DTD SVG 1.1//EN" "http://www.w3.org/Graphics/SVG/1.1/DTD/svg11.dtd">
<svg version="1.1" xmlns="http://www.w3.org/2000/svg" xmlns:xlink="http://www.w3.org/1999/xlink" preserveAspectRatio="xMidYMid meet" viewBox="0 0 640 640" width="640" height="640"><defs><path d="M545.26 323.95C545.26 447.55 442.2 547.89 315.26 547.89C188.32 547.89 85.26 447.55 85.26 323.95C85.26 200.35 188.32 100 315.26 100C442.2 100 545.26 200.35 545.26 323.95Z" id="bHIERJsqI"></path><path d="M509.64 322.73C509.64 430.93 421.67 518.78 313.33 518.78C204.98 518.78 117.01 430.93 117.01 322.73C117.01 214.52 204.98 126.67 313.33 126.67C421.67 126.67 509.64 214.52 509.64 322.73Z" id="aycg9YxHK"></path><path d="M239.43 245.97C239.43 245.97 239.43 245.97 239.43 245.97C217.62 227.32 243.32 176.96 264.49 158.86C285.68 140.74 320.17 140.74 341.37 158.86C362.57 176.97 362.57 206.44 341.37 224.56C325.9 237.79 290.26 253.07 263.68 253.07C253.88 253.07 245.31 250.99 239.43 245.97Z" id="c1GW5ASQjF"></path><path d="M200.21 297.71C196.4 294.11 194.25 289.4 194.06 284.39C188.74 284.21 183.72 282.2 179.9 278.6C175.89 274.82 173.68 269.8 173.68 264.46C173.68 259.12 175.89 254.1 179.9 250.33C187.74 242.96 201.3 242.75 209.38 249.81C211.2 248.1 225.78 234.38 227.6 232.66C228.86 231.48 230.9 231.48 232.15 232.66C233.41 233.84 233.41 235.76 232.15 236.94C230.09 238.89 213.56 254.45 211.49 256.39C210.83 257.01 209.92 257.34 209 257.28C208.06 257.22 207.21 256.78 206.65 256.09C206.1 255.39 205.79 254.98 205.4 254.63C199.8 249.35 190.07 249.35 184.47 254.62C181.66 257.25 180.12 260.75 180.12 264.47C180.12 268.18 181.66 271.68 184.45 274.31C187.74 277.41 192.34 278.82 197 278.2C198 278.07 199.02 278.38 199.73 279.06C200.45 279.73 200.79 280.68 200.65 281.63C199.98 286.04 201.48 290.34 204.77 293.44C210.54 298.86 219.93 298.86 225.7 293.44C231.47 288.01 231.47 279.17 225.7 273.74C225.32 273.37 224.89 273.09 224.47 272.79C223.72 272.26 223.1 271.34 223.04 270.46C222.97 269.59 223.15 268.62 223.82 268C225.88 266.05 242.41 250.49 244.47 248.55C245.73 247.37 247.77 247.37 249.03 248.55C250.28 249.73 250.28 251.65 249.03 252.83C247.2 254.55 232.62 268.27 230.8 269.99C238.53 277.81 238.35 290.1 230.25 297.72C226.11 301.61 220.67 303.56 215.23 303.56C209.79 303.56 204.36 301.62 200.21 297.71Z" id="a35lxVzHa8"></path><path d="M325.8 208.15C324.16 207.42 323.56 205.75 324.44 204.41C324.66 204.07 329.18 196.77 322.52 186.93C321.62 185.6 322.22 183.91 323.85 183.17C325.49 182.42 327.55 182.92 328.46 184.26C336.99 196.88 330.67 206.63 330.4 207.04C329.79 207.97 328.63 208.49 327.42 208.49C326.87 208.49 326.32 208.38 325.8 208.15Z" id="f8i62NVnLh"></path><path d="M297.7 442.13C314.98 425.91 328.02 379.96 342 356.24C351.85 339.54 356.91 320.8 343.71 306.73C330.51 292.66 311.49 296.52 294.19 305.29C269.63 317.74 222.95 327.84 205.67 344.06C178.44 369.61 176.97 412.28 202.38 439.36C227.79 466.44 270.47 467.68 297.7 442.13Z" id="i11pDt3rTv"></path><path d="M300.35 438.83C316.01 423.06 326.18 379.07 338.33 356.22C346.89 340.13 350.8 322.2 337.55 309.04C325.81 320.88 221.59 425.83 209.53 437.97C235.03 463.29 275.69 463.67 300.35 438.83Z" id="e1s5DRddAD"></path><path d="M230.76 412.73C219.61 400.84 217.93 384.3 232.95 370.2C247.96 356.11 274.89 348.96 286.04 360.85C297.19 372.74 288.36 399.15 273.34 413.24C258.32 427.34 241.92 424.61 230.76 412.73Z" id="a1co4y1l6P"></path><path d="M233.04 409.32C249.93 393.46 278.2 366.93 283.63 361.84C294.86 373.81 287.6 398.86 273.85 411.76C260.11 424.66 244.27 421.29 233.04 409.32Z" id="b5YNyKG44W"></path><path d="M456.66 290.89C453.58 290.89 450.67 291.62 448.07 292.7C449.19 290.19 449.94 287.38 449.94 284.41C449.94 273.82 439.26 265.25 438.72 265.25C438 265.25 427.5 273.82 427.5 284.41C427.5 293.34 434.32 300.84 437.44 302.97C437.44 302.97 437.44 302.97 437.44 302.97C439.64 305.99 447.41 312.56 456.66 312.56C467.62 312.56 476.5 302.42 476.5 301.72C476.5 301.2 467.62 290.89 456.66 290.89Z" id="h2c064K9x"></path><path d="M433.21 351.83C432.69 351.83 426.84 356.53 424.15 363.14C424.62 363.62 426.99 366 431.24 370.28L443.18 366.02C436.83 356.56 433.5 351.83 433.21 351.83Z" id="b2rYhRginN"></path><path d="M461.23 267.15C461.23 266.75 455.52 260.06 447.75 257.82C447.42 258.61 445.78 262.54 442.83 269.62L449.52 275.9C457.32 270.4 461.23 267.48 461.23 267.15Z" id="d40Ld6cOub"></path><path d="M461.87 252.65C473.46 243.86 491.65 245.82 492.19 246.35C492.92 247.05 494.79 264.42 485.69 275.59" id="bzaEDeoJM"></path><path d="M468.77 273.36C468.39 272.99 455.47 271.59 447.24 277.83C447.4 278.74 448.21 283.25 449.67 291.36L464.16 294.12C467.58 280.61 469.11 273.69 468.77 273.36Z" id="b4WRGmF8Q"></path><path d="M479.97 286.66C486.19 284.45 490.63 279.29 490.63 278.84C490.63 278.42 483.41 270.04 474.5 270.04C472 270.04 469.63 270.63 467.52 271.51C468.43 269.47 469.04 267.18 469.04 264.77C469.04 256.16 460.35 249.19 459.92 249.19C459.46 249.19 454.11 253.48 451.82 259.48" id="b2snfeJo7x"></path><path d="M465.37 250.15C465.37 250.15 474.36 255.75 469.42 268.02C473.14 266.41 482.96 265.55 489.19 273.09" id="adfWI0diX"></path><path d="M357.78 395.45C357.78 395.45 357.78 395.45 357.78 395.45C348.72 386.7 343.68 381.84 342.68 380.87C342.68 380.87 342.68 380.87 342.68 380.87C394.17 331.14 422.78 303.52 428.51 297.99C428.51 297.99 428.51 297.99 428.51 297.99C437.57 306.74 442.6 311.61 443.61 312.58C443.61 312.58 443.61 312.58 443.61 312.58C392.11 362.3 363.5 389.93 357.78 395.45Z" id="b17WJawHm"></path><path d="M442.64 348.03C440.21 348.57 438.04 349.65 436.17 350.96C436.62 348.78 436.72 346.42 436.21 344.08C434.36 335.71 424.42 330.79 424 330.88C423.42 331.01 416.62 339.62 418.46 347.99C420.02 355.05 426.71 359.79 429.55 360.93C429.55 360.93 429.55 360.93 429.55 360.93C431.82 362.93 439.11 366.77 446.42 365.16C455.08 363.25 460.34 353.69 460.22 353.14C460.13 352.73 451.31 346.12 442.64 348.03Z" id="i3jzKYrYd"></path><path d="M472.8 280.24C472.39 280.24 467.65 284.04 465.47 289.4C465.47 289.4 470.7 293.33 471.21 295.28C475.6 292.32 480.88 291.72 480.88 291.72C479.34 285.17 473.16 280.24 472.8 280.24Z" id="aBtCdkcjK"></path><path d="M465.15 338.61C465.15 338.29 460.54 332.87 454.24 331.07C454.24 331.07 454.08 338.06 449.79 340.62C453.16 341.87 455.67 345.7 455.67 345.7C461.22 343.59 465.15 339.02 465.15 338.61Z" id="g2ksAaMoh"></path><path d="M444.58 317.93C453.96 310.81 468.69 312.4 469.13 312.82C469.72 313.39 471.23 327.45 463.87 336.5" id="aYh4bfpZs"></path><path d="M450.01 331.21C449.69 330.91 439.24 329.78 432.58 334.83C432.58 334.83 434.96 342.09 432.03 348.08C438.25 345.24 446.27 348.02 446.27 348.02C451.5 341.6 450.42 331.61 450.01 331.21Z" id="f3gqvXgrqL"></path><path d="M451.52 352.79C456.55 351 460.15 346.82 460.15 346.46C460.15 346.12 454.3 339.33 447.09 339.33C445.06 339.33 443.14 339.81 441.43 340.52C442.17 338.87 442.67 337.02 442.67 335.07C442.67 328.1 435.64 322.45 435.28 322.45C434.91 322.45 430.58 325.93 428.73 330.79" id="b8tEbfEfb"></path><path d="M437.98 312.26C437.98 312.26 445.3 319.55 440.93 327.52C449.46 324.83 457.27 330.83 457.27 330.83" id="e7Ak1yxiJt"></path><path d="M381.43 414.38C381.43 414.38 381.43 414.38 381.43 414.38C374.09 407.29 370.02 403.35 369.2 402.57C369.2 402.57 369.2 402.57 369.2 402.57C398.87 373.92 415.35 358 418.65 354.82C418.65 354.82 418.65 354.82 418.65 354.82C425.99 361.91 430.06 365.84 430.88 366.63C430.88 366.63 430.88 366.63 430.88 366.63C401.21 395.28 384.73 411.19 381.43 414.38Z" id="bapOkDli"></path><path d="M489.42 239.9L489.61 239.9L489.8 239.91L489.99 239.91L490.17 239.91L490.35 239.92L490.53 239.92L490.7 239.93L490.87 239.93L491.04 239.94L491.2 239.95L491.36 239.95L491.51 239.96L491.66 239.97L491.81 239.98L491.95 239.98L492.09 239.99L492.39 240.01L492.68 240.03L492.96 240.05L493.23 240.08L493.48 240.1L493.73 240.12L493.96 240.15L494.19 240.18L494.4 240.2L494.61 240.23L494.8 240.26L494.99 240.29L495.17 240.32L495.34 240.36L495.5 240.39L495.66 240.42L495.8 240.46L495.94 240.49L496.08 240.53L496.2 240.57L496.32 240.61L496.44 240.65L496.54 240.69L496.65 240.73L496.74 240.77L496.84 240.81L496.93 240.86L497.01 240.9L497.09 240.95L497.17 240.99L497.24 241.04L497.31 241.09L497.38 241.14L497.44 241.19L497.5 241.24L497.57 241.29L497.62 241.34L497.68 241.39L497.74 241.45L497.8 241.5L497.85 241.55L497.9 241.61L497.96 241.66L498.01 241.72L498.06 241.78L498.12 241.84L498.17 241.9L498.22 241.97L498.27 242.04L498.32 242.11L498.37 242.19L498.42 242.27L498.47 242.35L498.51 242.44L498.56 242.53L498.61 242.62L498.65 242.73L498.7 242.83L498.74 242.95L498.78 243.06L498.83 243.19L498.87 243.32L498.91 243.46L498.95 243.6L498.99 243.75L499.02 243.91L499.06 244.08L499.1 244.25L499.13 244.44L499.16 244.63L499.2 244.83L499.23 245.04L499.26 245.25L499.29 245.48L499.31 245.72L499.34 245.97L499.37 246.23L499.39 246.49L499.41 246.77L499.44 247.07L499.45 247.2L499.45 247.33L499.46 247.47L499.47 247.62L499.48 247.76L499.49 247.92L499.49 248.07L499.5 248.23L499.51 248.39L499.51 248.56L499.52 248.73L499.52 248.9L499.53 249.08L499.53 249.26L499.53 249.44L499.54 249.63L499.54 249.82L499.54 250.01L499.54 250.21L499.54 250.41L499.54 250.62L499.53 250.82L499.53 251.03L499.53 251.25L499.52 251.46L499.51 251.68L499.51 251.9L499.5 252.13L499.49 252.36L499.48 252.59L499.46 252.82L499.45 253.06L499.43 253.3L499.42 253.54L499.4 253.79L499.38 254.03L499.36 254.28L499.34 254.54L499.32 254.79L499.29 255.05L499.25 255.43L499.21 255.81L499.16 256.2L499.11 256.6L499.06 257L499 257.41L498.94 257.82L498.87 258.24L498.8 258.67L498.72 259.09L498.64 259.53L498.55 259.97L498.46 260.41L498.36 260.85L498.26 261.3L498.15 261.75L498.03 262.21L497.91 262.67L497.78 263.13L497.65 263.59L497.51 264.06L497.36 264.52L497.21 264.99L497.05 265.46L496.88 265.93L496.71 266.4L496.53 266.87L496.34 267.35L496.14 267.82L495.94 268.29L495.72 268.76L495.5 269.23L495.27 269.7L495.04 270.17L494.79 270.63L494.54 271.1L494.27 271.56L494 272.02L493.72 272.47L493.43 272.93L493.54 273.04L493.64 273.15L493.73 273.26L493.83 273.37L493.92 273.47L494.01 273.58L494.09 273.68L494.17 273.78L494.25 273.87L494.32 273.97L494.39 274.06L494.46 274.16L494.53 274.25L494.59 274.34L494.65 274.43L494.71 274.52L494.76 274.61L494.81 274.69L494.86 274.78L494.9 274.86L494.95 274.95L494.99 275.03L495.02 275.11L495.06 275.19L495.09 275.28L495.12 275.36L495.15 275.44L495.18 275.52L495.2 275.6L495.22 275.68L495.24 275.76L495.25 275.85L495.27 275.93L495.28 276.01L495.29 276.09L495.3 276.17L495.31 276.26L495.31 276.34L495.31 276.43L495.31 276.51L495.31 276.57L495.31 276.64L495.31 276.7L495.31 276.77L495.31 276.84L495.3 276.92L495.29 277L495.28 277.08L495.27 277.17L495.25 277.26L495.23 277.35L495.2 277.45L495.17 277.55L495.13 277.66L495.09 277.77L495.04 277.88L494.99 278L494.93 278.13L494.86 278.26L494.79 278.4L494.7 278.54L494.61 278.68L494.51 278.84L494.4 278.99L494.28 279.16L494.15 279.33L494.01 279.5L493.86 279.69L493.7 279.87L493.53 280.07L493.34 280.27L493.15 280.48L492.94 280.7L492.72 280.92L492.48 281.15L492.23 281.39L491.96 281.63L491.69 281.89L491.39 282.15L491.08 282.42L491 282.48L490.92 282.55L490.84 282.62L490.76 282.69L490.68 282.76L490.59 282.83L490.51 282.9L490.42 282.97L490.33 283.04L490.24 283.11L490.15 283.19L490.06 283.26L489.96 283.33L489.87 283.41L489.77 283.48L489.67 283.56L489.58 283.63L489.48 283.71L489.38 283.78L489.27 283.86L489.17 283.93L489.07 284.01L488.96 284.08L488.85 284.16L488.75 284.24L488.64 284.31L488.53 284.39L488.42 284.47L488.3 284.54L488.19 284.62L488.08 284.7L487.96 284.77L487.84 284.85L487.73 284.93L487.61 285L487.49 285.08L487.37 285.16L487.24 285.23L487.12 285.31L487 285.39L487.06 285.48L487.13 285.58L487.19 285.67L487.24 285.76L487.3 285.85L487.35 285.94L487.4 286.02L487.44 286.1L487.49 286.18L487.53 286.26L487.56 286.34L487.6 286.41L487.63 286.48L487.66 286.55L487.69 286.62L487.71 286.69L487.74 286.75L487.76 286.82L487.78 286.88L487.8 286.94L487.81 287L487.83 287.05L487.84 287.11L487.85 287.16L487.86 287.21L487.87 287.26L487.88 287.31L487.89 287.36L487.89 287.41L487.9 287.45L487.9 287.49L487.9 287.53L487.91 287.57L487.91 287.61L487.91 287.65L487.91 287.69L487.91 287.72L487.91 287.75L487.91 287.79L487.91 287.82L487.91 287.87L487.91 287.94L487.91 288L487.91 288.07L487.9 288.14L487.9 288.21L487.89 288.29L487.88 288.38L487.86 288.46L487.84 288.56L487.82 288.65L487.79 288.75L487.76 288.86L487.72 288.97L487.67 289.09L487.62 289.21L487.57 289.33L487.5 289.46L487.43 289.6L487.35 289.75L487.26 289.89L487.16 290.05L487.06 290.21L486.94 290.38L486.81 290.55L486.67 290.73L486.53 290.92L486.37 291.12L486.2 291.32L486.01 291.53L485.82 291.74L485.61 291.97L485.38 292.2L485.15 292.44L484.89 292.69L484.63 292.94L484.35 293.2L484.05 293.48L483.74 293.76L483.41 294.05L483.31 294.13L483.21 294.21L483.11 294.3L483.01 294.38L482.91 294.47L482.81 294.56L482.7 294.64L482.59 294.73L482.48 294.82L482.37 294.91L482.26 295L482.14 295.09L482.03 295.19L481.91 295.28L481.79 295.37L481.67 295.46L481.54 295.56L481.42 295.65L481.29 295.75L481.16 295.84L481.03 295.93L480.9 296.03L480.77 296.12L480.64 296.22L480.5 296.32L480.36 296.41L480.22 296.51L480.08 296.6L479.94 296.7L479.8 296.79L479.65 296.89L479.5 296.99L479.36 297.08L479.21 297.18L479.06 297.27L478.9 297.37L478.75 297.46L478.59 297.56L478.44 297.65L478.28 297.74L478.3 297.79L478.32 297.83L478.34 297.87L478.36 297.91L478.38 297.95L478.4 297.99L478.42 298.04L478.43 298.08L478.45 298.12L478.46 298.16L478.48 298.2L478.49 298.24L478.51 298.28L478.52 298.32L478.53 298.36L478.55 298.4L478.56 298.44L478.57 298.49L478.58 298.53L478.59 298.57L478.6 298.61L478.61 298.65L478.62 298.69L478.62 298.73L478.63 298.77L478.64 298.81L478.64 298.85L478.65 298.89L478.66 298.93L478.66 298.97L478.67 299.01L478.67 299.06L478.67 299.1L478.68 299.14L478.68 299.18L478.68 299.22L478.68 299.26L478.68 299.31L478.68 299.35L478.68 299.39L478.68 299.48L478.68 299.56L478.68 299.65L478.67 299.73L478.66 299.82L478.65 299.9L478.64 299.99L478.62 300.07L478.61 300.16L478.59 300.25L478.56 300.33L478.54 300.42L478.51 300.51L478.48 300.6L478.44 300.7L478.4 300.79L478.36 300.89L478.32 300.98L478.27 301.08L478.21 301.18L478.16 301.29L478.1 301.39L478.03 301.5L477.96 301.61L477.89 301.72L477.81 301.84L477.72 301.95L477.63 302.07L477.54 302.2L477.44 302.33L477.34 302.46L477.23 302.59L477.11 302.73L476.99 302.87L476.87 303.01L476.73 303.16L476.6 303.31L476.45 303.47L476.3 303.63L476.14 303.79L476.08 303.87L476 303.94L475.93 304.02L475.85 304.09L475.78 304.17L475.7 304.25L475.61 304.33L475.53 304.42L475.44 304.5L475.35 304.59L475.26 304.68L475.17 304.77L475.07 304.86L474.98 304.95L474.88 305.04L474.77 305.14L474.67 305.23L474.56 305.33L474.46 305.43L474.35 305.53L474.23 305.63L474.12 305.73L474 305.83L473.88 305.93L473.76 306.04L473.64 306.14L473.52 306.25L473.39 306.36L473.26 306.46L473.13 306.57L473 306.68L472.86 306.79L472.72 306.9L472.59 307.01L472.44 307.12L472.3 307.23L472.16 307.34L472.01 307.46L471.86 307.57L471.71 307.68L471.8 307.7L471.89 307.72L471.98 307.74L472.07 307.76L472.16 307.78L472.24 307.8L472.32 307.82L472.4 307.84L472.47 307.86L472.55 307.89L472.62 307.91L472.69 307.93L472.76 307.96L472.83 307.98L472.89 308.01L472.96 308.03L473.02 308.06L473.08 308.08L473.14 308.11L473.19 308.14L473.25 308.17L473.31 308.2L473.36 308.23L473.41 308.25L473.46 308.29L473.51 308.32L473.56 308.35L473.61 308.38L473.66 308.41L473.7 308.44L473.75 308.48L473.79 308.51L473.84 308.55L473.88 308.58L473.93 308.62L473.97 308.66L474.01 308.69L474.05 308.73L474.09 308.77L474.13 308.81L474.19 308.87L474.25 308.93L474.31 308.99L474.37 309.05L474.43 309.12L474.48 309.19L474.53 309.26L474.59 309.33L474.64 309.4L474.69 309.48L474.74 309.55L474.78 309.63L474.83 309.72L474.88 309.81L474.92 309.9L474.96 309.99L475 310.09L475.05 310.19L475.09 310.29L475.12 310.4L475.16 310.52L475.2 310.64L475.23 310.76L475.27 310.89L475.3 311.02L475.33 311.16L475.36 311.3L475.39 311.45L475.42 311.61L475.45 311.77L475.47 311.94L475.5 312.11L475.52 312.29L475.55 312.48L475.57 312.67L475.59 312.87L475.61 313.08L475.63 313.29L475.65 313.52L475.66 313.75L475.67 313.86L475.68 313.97L475.69 314.08L475.69 314.2L475.7 314.32L475.71 314.45L475.71 314.58L475.72 314.71L475.72 314.84L475.73 314.98L475.73 315.12L475.74 315.26L475.74 315.41L475.74 315.55L475.75 315.71L475.75 315.86L475.75 316.02L475.75 316.18L475.75 316.34L475.75 316.5L475.75 316.67L475.75 316.84L475.74 317.02L475.74 317.19L475.73 317.37L475.73 317.55L475.72 317.73L475.72 317.92L475.71 318.11L475.7 318.3L475.69 318.49L475.68 318.68L475.66 318.88L475.65 319.08L475.64 319.28L475.62 319.49L475.6 319.69L475.59 319.9L475.57 320.11L475.55 320.32L475.51 320.62L475.48 320.93L475.44 321.24L475.4 321.56L475.36 321.88L475.31 322.21L475.26 322.54L475.21 322.87L475.15 323.21L475.09 323.56L475.03 323.9L474.96 324.25L474.88 324.6L474.81 324.96L474.73 325.32L474.64 325.68L474.55 326.05L474.45 326.41L474.35 326.78L474.25 327.15L474.14 327.52L474.03 327.9L473.91 328.27L473.78 328.65L473.65 329.02L473.51 329.4L473.37 329.78L473.22 330.16L473.07 330.54L472.91 330.91L472.75 331.29L472.57 331.67L472.4 332.05L472.21 332.42L472.02 332.8L471.82 333.17L471.62 333.55L471.41 333.92L471.19 334.29L470.97 334.66L471.03 334.73L471.1 334.81L471.16 334.88L471.22 334.96L471.28 335.03L471.34 335.11L471.4 335.18L471.45 335.25L471.51 335.33L471.56 335.4L471.61 335.47L471.66 335.54L471.7 335.61L471.75 335.69L471.79 335.76L471.84 335.83L471.88 335.9L471.91 335.97L471.95 336.04L471.99 336.11L472.02 336.19L472.05 336.26L472.08 336.33L472.11 336.4L472.14 336.47L472.16 336.55L472.18 336.62L472.21 336.69L472.23 336.77L472.24 336.84L472.26 336.92L472.27 337L472.29 337.07L472.3 337.15L472.31 337.23L472.32 337.31L472.32 337.39L472.33 337.47L472.33 337.55L472.33 337.63L472.33 337.69L472.33 337.75L472.33 337.81L472.33 337.88L472.32 337.94L472.32 338.01L472.31 338.09L472.3 338.17L472.29 338.25L472.27 338.33L472.25 338.42L472.23 338.51L472.2 338.6L472.17 338.7L472.14 338.8L472.1 338.91L472.05 339.02L472 339.13L471.94 339.25L471.87 339.37L471.8 339.5L471.72 339.63L471.63 339.77L471.54 339.91L471.44 340.06L471.32 340.21L471.2 340.37L471.07 340.53L470.93 340.69L470.79 340.87L470.63 341.05L470.46 341.23L470.27 341.42L470.08 341.61L469.88 341.82L469.66 342.02L469.43 342.24L469.19 342.46L468.94 342.68L468.67 342.92L468.61 342.96L468.56 343.01L468.5 343.06L468.44 343.11L468.38 343.16L468.32 343.21L468.26 343.26L468.2 343.31L468.14 343.36L468.08 343.41L468.01 343.46L467.95 343.51L467.88 343.56L467.82 343.62L467.75 343.67L467.68 343.72L467.62 343.77L467.55 343.83L467.48 343.88L467.41 343.93L467.34 343.99L467.27 344.04L467.19 344.09L467.12 344.15L467.05 344.2L466.97 344.25L466.9 344.31L466.82 344.36L466.75 344.42L466.67 344.47L466.59 344.53L466.51 344.58L466.43 344.64L466.35 344.69L466.27 344.74L466.19 344.8L466.11 344.85L466.03 344.91L465.94 344.96L465.86 345.02L465.89 345.08L465.93 345.14L465.96 345.2L465.99 345.26L466.02 345.32L466.04 345.38L466.07 345.44L466.09 345.49L466.11 345.55L466.13 345.6L466.15 345.65L466.17 345.7L466.19 345.75L466.21 345.8L466.22 345.85L466.23 345.9L466.25 345.94L466.26 345.99L466.27 346.03L466.28 346.08L466.29 346.12L466.29 346.16L466.3 346.2L466.31 346.24L466.31 346.28L466.32 346.32L466.32 346.36L466.32 346.4L466.33 346.43L466.33 346.47L466.33 346.5L466.33 346.54L466.34 346.57L466.34 346.6L466.34 346.63L466.34 346.66L466.34 346.69L466.34 346.72L466.34 346.75L466.34 346.78L466.34 346.84L466.34 346.9L466.34 346.97L466.33 347.03L466.33 347.1L466.32 347.17L466.32 347.25L466.31 347.33L466.29 347.41L466.28 347.5L466.26 347.59L466.23 347.68L466.2 347.78L466.17 347.88L466.13 347.98L466.09 348.09L466.04 348.21L465.98 348.33L465.92 348.45L465.85 348.58L465.78 348.71L465.69 348.85L465.6 348.99L465.5 349.14L465.39 349.29L465.27 349.45L465.14 349.62L465.01 349.79L464.86 349.96L464.7 350.15L464.53 350.34L464.35 350.53L464.16 350.73L463.96 350.94L463.74 351.15L463.51 351.38L463.27 351.6L463.01 351.84L462.74 352.08L462.46 352.33L462.39 352.39L462.31 352.45L462.24 352.52L462.16 352.58L462.09 352.65L462.01 352.71L461.93 352.78L461.85 352.84L461.77 352.91L461.69 352.98L461.6 353.04L461.52 353.11L461.43 353.18L461.35 353.25L461.26 353.32L461.17 353.39L461.08 353.45L460.99 353.52L460.9 353.59L460.8 353.67L460.71 353.74L460.61 353.81L460.51 353.88L460.42 353.95L460.32 354.02L460.22 354.09L460.12 354.16L460.01 354.23L459.91 354.31L459.81 354.38L459.7 354.45L459.59 354.52L459.49 354.59L459.38 354.67L459.27 354.74L459.16 354.81L459.05 354.88L458.93 354.95L458.82 355.02L458.71 355.09L458.71 355.12L458.72 355.15L458.73 355.17L458.74 355.2L458.74 355.22L458.75 355.25L458.76 355.28L458.77 355.3L458.77 355.33L458.78 355.35L458.78 355.38L458.79 355.41L458.8 355.43L458.8 355.46L458.81 355.48L458.81 355.51L458.82 355.54L458.82 355.56L458.82 355.59L458.83 355.62L458.83 355.64L458.84 355.67L458.84 355.7L458.84 355.72L458.85 355.75L458.85 355.77L458.85 355.8L458.85 355.83L458.86 355.85L458.86 355.88L458.86 355.91L458.86 355.94L458.86 355.96L458.86 355.99L458.86 356.02L458.87 356.04L458.87 356.07L458.87 356.1L458.87 356.13L458.87 356.15L458.87 356.25L458.86 356.34L458.86 356.43L458.85 356.52L458.84 356.62L458.83 356.71L458.81 356.8L458.79 356.89L458.77 356.98L458.75 357.07L458.73 357.16L458.7 357.25L458.67 357.34L458.64 357.43L458.6 357.52L458.56 357.61L458.52 357.7L458.47 357.79L458.43 357.89L458.37 357.98L458.32 358.08L458.26 358.17L458.2 358.27L458.14 358.37L458.07 358.47L458 358.57L457.93 358.67L457.85 358.77L457.77 358.88L457.68 358.99L457.59 359.1L457.5 359.21L457.41 359.32L457.31 359.44L457.2 359.55L457.1 359.67L456.98 359.8L456.87 359.92L456.75 360.05L456.63 360.18L456.57 360.24L456.5 360.3L456.44 360.37L456.37 360.44L456.3 360.51L456.23 360.58L456.16 360.65L456.09 360.72L456.01 360.8L455.93 360.87L455.85 360.95L455.77 361.03L455.69 361.11L455.6 361.19L455.51 361.27L455.42 361.35L455.33 361.44L455.24 361.52L455.14 361.61L455.04 361.7L454.95 361.78L454.84 361.87L454.74 361.96L454.64 362.05L454.53 362.15L454.42 362.24L454.31 362.33L454.2 362.42L454.08 362.52L453.97 362.61L453.85 362.71L453.73 362.81L453.61 362.9L453.48 363L453.36 363.1L453.23 363.19L453.1 363.29L452.97 363.39L452.83 363.49L452.7 363.59L452.47 363.76L452.23 363.93L451.98 364.1L451.73 364.27L451.47 364.44L451.21 364.61L450.94 364.78L450.66 364.95L450.38 365.12L450.09 365.29L449.79 365.46L449.49 365.63L449.19 365.79L448.87 365.96L448.56 366.12L448.24 366.27L447.91 366.43L447.58 366.58L447.24 366.73L446.89 366.87L446.55 367.01L446.19 367.15L445.84 367.28L445.47 367.4L445.11 367.52L444.74 367.64L444.36 367.74L443.98 367.85L443.6 367.94L443.21 368.03L442.82 368.11L442.42 368.19L442.02 368.25L441.62 368.31L441.21 368.36L440.8 368.4L440.38 368.44L439.97 368.46L439.54 368.48L439.12 368.48L438.9 368.48L438.69 368.48L438.47 368.47L438.25 368.46L438.04 368.45L437.82 368.44L437.61 368.42L437.4 368.41L437.18 368.39L436.97 368.36L436.76 368.34L436.55 368.31L436.34 368.29L436.13 368.26L435.92 368.22L435.72 368.19L435.51 368.15L435.3 368.11L435.1 368.07L434.89 368.03L434.69 367.99L434.48 367.94L434.28 367.89L434.08 367.84L433.88 367.79L433.68 367.74L433.48 367.69L433.28 367.63L433.08 367.57L432.89 367.51L432.69 367.45L432.5 367.39L432.3 367.32L432.11 367.26L431.92 367.19L431.73 367.12L431.54 367.05L431.35 366.98L431.16 366.91L430.98 366.83L383.04 413.12L382.98 413.17L382.93 413.22L382.88 413.27L382.82 413.32L382.77 413.36L382.71 413.41L382.65 413.45L382.59 413.49L382.53 413.53L382.47 413.57L382.41 413.61L382.35 413.64L382.29 413.68L382.23 413.71L382.17 413.75L382.1 413.78L382.04 413.81L381.97 413.84L381.91 413.87L381.84 413.9L381.77 413.92L381.71 413.95L381.64 413.97L381.57 413.99L381.5 414.01L381.43 414.03L381.36 414.05L381.29 414.07L381.22 414.08L381.15 414.1L381.08 414.11L381.01 414.12L380.94 414.13L380.87 414.14L380.8 414.15L380.72 414.16L380.65 414.16L380.58 414.16L380.5 414.17L380.43 414.17L380.36 414.17L380.28 414.16L380.21 414.16L380.14 414.16L380.07 414.15L379.99 414.14L379.92 414.13L379.85 414.12L379.78 414.11L379.71 414.1L379.64 414.08L379.57 414.07L379.5 414.05L379.43 414.03L379.36 414.01L379.29 413.99L379.22 413.97L379.16 413.95L379.09 413.92L379.02 413.9L378.96 413.87L378.89 413.84L378.82 413.81L378.76 413.78L378.7 413.75L378.63 413.71L378.57 413.68L378.51 413.64L378.45 413.61L378.39 413.57L378.33 413.53L378.27 413.49L378.21 413.45L378.15 413.4L378.1 413.36L378.04 413.32L377.99 413.27L377.93 413.22L377.88 413.17L377.83 413.12L365.6 401.32L365.49 401.21L365.39 401.1L365.3 400.99L365.21 400.88L365.13 400.76L365.05 400.64L364.97 400.52L364.91 400.39L364.84 400.27L364.79 400.14L364.74 400.01L364.69 399.88L364.65 399.75L364.62 399.61L364.59 399.48L364.56 399.35L364.54 399.21L364.53 399.07L364.52 398.94L364.52 398.8L364.52 398.66L364.53 398.53L364.54 398.39L364.56 398.26L364.59 398.12L364.62 397.99L364.65 397.85L364.69 397.72L364.74 397.59L364.79 397.46L364.84 397.34L364.91 397.21L364.97 397.09L365.05 396.96L365.13 396.84L365.21 396.73L365.3 396.61L365.39 396.5L365.49 396.39L365.6 396.29L404.15 359.06L413.54 350L413.47 349.85L413.41 349.69L413.35 349.54L413.29 349.39L413.22 349.23L413.17 349.08L413.11 348.92L413.05 348.77L412.99 348.61L412.94 348.45L412.88 348.29L412.83 348.14L412.78 347.98L412.73 347.82L412.68 347.66L412.63 347.5L412.59 347.33L412.54 347.17L412.5 347.01L412.45 346.84L412.41 346.68L412.37 346.52L412.33 346.35L412.29 346.19L412.26 346.02L412.22 345.85L412.19 345.69L412.16 345.52L412.13 345.35L412.1 345.18L412.07 345.01L412.04 344.84L412.02 344.67L412 344.5L411.97 344.33L411.95 344.16L411.94 343.99L411.92 343.81L411.9 343.64L411.89 343.47L360.52 393.07L360.47 393.12L360.41 393.17L360.36 393.22L360.3 393.27L360.24 393.31L360.18 393.36L360.12 393.4L360.06 393.44L360 393.49L359.94 393.52L359.88 393.56L359.82 393.6L359.76 393.64L359.69 393.67L359.63 393.7L359.56 393.74L359.5 393.77L359.43 393.8L359.37 393.82L359.3 393.85L359.24 393.88L359.17 393.9L359.1 393.92L359.03 393.94L358.97 393.96L358.9 393.98L358.83 394L358.76 394.02L358.69 394.03L358.62 394.05L358.55 394.06L358.48 394.07L358.41 394.08L358.34 394.09L358.27 394.09L358.2 394.1L358.13 394.1L358.06 394.11L357.99 394.11L357.92 394.11L357.85 394.11L357.77 394.11L357.7 394.1L357.63 394.1L357.56 394.09L357.49 394.09L357.42 394.08L357.35 394.07L357.28 394.06L357.21 394.05L357.14 394.03L357.07 394.02L357 394L356.94 393.98L356.87 393.96L356.8 393.94L356.73 393.92L356.66 393.9L356.6 393.88L356.53 393.85L356.46 393.82L356.4 393.8L356.33 393.77L356.27 393.74L356.2 393.7L356.14 393.67L356.08 393.64L356.01 393.6L355.95 393.56L355.89 393.52L355.83 393.49L355.77 393.44L355.71 393.4L355.65 393.36L355.59 393.31L355.53 393.27L355.48 393.22L355.42 393.17L355.37 393.12L355.31 393.07L340.21 378.48L340.1 378.38L340 378.27L339.91 378.16L339.82 378.04L339.73 377.92L339.65 377.8L339.58 377.68L339.51 377.56L339.45 377.43L339.4 377.31L339.34 377.18L339.3 377.05L339.26 376.91L339.22 376.78L339.19 376.65L339.17 376.51L339.15 376.38L339.14 376.24L339.13 376.1L339.13 375.97L339.13 375.83L339.14 375.69L339.15 375.56L339.17 375.42L339.19 375.29L339.22 375.15L339.26 375.02L339.3 374.89L339.34 374.76L339.4 374.63L339.45 374.5L339.51 374.38L339.58 374.25L339.65 374.13L339.73 374.01L339.82 373.89L339.91 373.78L340 373.67L340.1 373.56L340.21 373.45L424.58 291.99L424.48 291.76L424.38 291.53L424.28 291.31L424.18 291.08L424.09 290.84L424 290.61L423.91 290.38L423.82 290.14L423.73 289.91L423.65 289.67L423.57 289.43L423.49 289.19L423.41 288.95L423.34 288.71L423.26 288.47L423.19 288.22L423.13 287.98L423.06 287.73L423 287.48L422.94 287.24L422.88 286.99L422.82 286.74L422.77 286.48L422.72 286.23L422.67 285.98L422.63 285.72L422.59 285.47L422.55 285.21L422.51 284.96L422.48 284.7L422.45 284.44L422.42 284.18L422.4 283.92L422.38 283.66L422.36 283.4L422.34 283.13L422.33 282.87L422.32 282.6L422.32 282.34L422.32 282.07L422.32 281.58L422.34 281.1L422.37 280.62L422.41 280.14L422.47 279.66L422.53 279.2L422.6 278.73L422.68 278.27L422.78 277.81L422.88 277.36L422.99 276.91L423.11 276.47L423.23 276.03L423.37 275.59L423.51 275.17L423.66 274.74L423.82 274.32L423.98 273.91L424.15 273.5L424.32 273.1L424.5 272.7L424.68 272.31L424.87 271.93L425.06 271.55L425.26 271.18L425.46 270.81L425.66 270.45L425.86 270.1L426.07 269.75L426.28 269.41L426.49 269.07L426.7 268.75L426.92 268.42L427.13 268.11L427.34 267.8L427.56 267.5L427.77 267.21L427.98 266.93L428.19 266.65L428.4 266.38L428.53 266.22L428.65 266.07L428.77 265.92L428.9 265.76L429.02 265.62L429.14 265.47L429.26 265.32L429.38 265.18L429.5 265.04L429.62 264.91L429.74 264.77L429.86 264.64L429.97 264.5L430.09 264.38L430.2 264.25L430.32 264.12L430.43 264L430.54 263.88L430.66 263.76L430.77 263.65L430.87 263.53L430.98 263.42L431.09 263.31L431.19 263.21L431.3 263.1L431.4 263L431.5 262.9L431.6 262.8L431.7 262.71L431.79 262.61L431.89 262.52L431.98 262.43L432.07 262.35L432.16 262.26L432.25 262.18L432.34 262.1L432.42 262.03L432.5 261.95L432.58 261.88L432.66 261.81L432.83 261.66L433 261.51L433.16 261.37L433.32 261.24L433.47 261.11L433.62 260.99L433.77 260.87L433.91 260.76L434.05 260.66L434.18 260.56L434.32 260.46L434.44 260.37L434.57 260.28L434.69 260.2L434.81 260.13L434.93 260.05L435.04 259.99L435.15 259.92L435.26 259.86L435.37 259.81L435.47 259.76L435.57 259.71L435.67 259.67L435.77 259.63L435.87 259.59L435.97 259.55L436.06 259.52L436.15 259.5L436.25 259.47L436.34 259.45L436.43 259.43L436.52 259.41L436.61 259.4L436.7 259.39L436.78 259.38L436.87 259.37L436.96 259.36L437.05 259.36L437.13 259.36L437.22 259.36L437.27 259.36L437.31 259.36L437.35 259.36L437.4 259.36L437.44 259.36L437.48 259.36L437.53 259.37L437.57 259.37L437.61 259.37L437.66 259.38L437.7 259.38L437.74 259.39L437.78 259.39L437.82 259.4L437.87 259.41L437.91 259.41L437.95 259.42L437.99 259.43L438.03 259.44L438.08 259.45L438.12 259.46L438.16 259.47L438.2 259.48L438.24 259.49L438.29 259.5L438.33 259.51L438.37 259.52L438.41 259.54L438.46 259.55L438.5 259.57L438.54 259.58L438.58 259.6L438.63 259.61L438.67 259.63L438.71 259.65L438.76 259.67L438.8 259.69L438.84 259.71L438.89 259.73L438.93 259.75L439.03 259.59L439.12 259.44L439.22 259.29L439.32 259.14L439.42 259L439.52 258.85L439.62 258.71L439.71 258.56L439.81 258.42L439.91 258.28L440.01 258.14L440.11 258.01L440.21 257.87L440.31 257.74L440.41 257.6L440.51 257.47L440.61 257.34L440.7 257.21L440.8 257.09L440.9 256.96L441 256.84L441.1 256.72L441.19 256.59L441.29 256.48L441.39 256.36L441.48 256.24L441.58 256.13L441.67 256.02L441.77 255.91L441.86 255.8L441.95 255.69L442.05 255.58L442.14 255.48L442.23 255.38L442.32 255.27L442.41 255.18L442.5 255.08L442.59 254.98L442.67 254.89L442.76 254.8L443.06 254.48L443.35 254.17L443.63 253.89L443.9 253.62L444.17 253.36L444.42 253.12L444.67 252.89L444.91 252.67L445.14 252.47L445.37 252.28L445.58 252.1L445.79 251.94L445.99 251.78L446.19 251.64L446.38 251.51L446.56 251.38L446.73 251.27L446.9 251.17L447.06 251.07L447.21 250.99L447.36 250.91L447.5 250.84L447.64 250.78L447.77 250.72L447.9 250.67L448.02 250.63L448.13 250.59L448.24 250.56L448.34 250.54L448.44 250.51L448.54 250.49L448.63 250.48L448.72 250.47L448.8 250.46L448.88 250.45L448.95 250.45L449.02 250.45L449.09 250.45L449.15 250.45L449.21 250.44L449.24 250.44L449.27 250.45L449.3 250.45L449.34 250.45L449.38 250.45L449.41 250.45L449.45 250.45L449.49 250.45L449.53 250.46L449.58 250.46L449.62 250.46L449.67 250.47L449.72 250.48L449.77 250.48L449.82 250.49L449.87 250.5L449.93 250.51L449.99 250.53L450.04 250.54L450.1 250.56L450.17 250.57L450.23 250.59L450.3 250.61L450.37 250.64L450.43 250.66L450.51 250.69L450.58 250.72L450.66 250.75L450.73 250.78L450.81 250.82L450.9 250.86L450.98 250.9L451.07 250.94L451.15 250.99L451.24 251.04L451.34 251.09L451.43 251.15L451.53 251.2L451.63 251.26L451.73 251.33L451.81 251.21L451.89 251.09L451.96 250.97L452.04 250.86L452.12 250.74L452.2 250.62L452.28 250.51L452.36 250.4L452.44 250.29L452.52 250.18L452.6 250.07L452.68 249.96L452.76 249.85L452.84 249.74L452.92 249.64L453 249.54L453.08 249.43L453.15 249.33L453.23 249.23L453.31 249.13L453.39 249.03L453.47 248.93L453.55 248.84L453.62 248.74L453.7 248.65L453.78 248.56L453.85 248.46L453.93 248.37L454 248.29L454.08 248.2L454.15 248.11L454.23 248.02L454.3 247.94L454.38 247.86L454.45 247.78L454.52 247.69L454.59 247.62L454.66 247.54L454.73 247.46L454.8 247.38L455.08 247.09L455.35 246.8L455.61 246.53L455.87 246.28L456.11 246.04L456.35 245.81L456.58 245.59L456.81 245.39L457.02 245.2L457.23 245.02L457.43 244.85L457.63 244.7L457.82 244.55L458 244.42L458.18 244.29L458.35 244.18L458.51 244.07L458.67 243.98L458.82 243.89L458.97 243.81L459.11 243.74L459.24 243.67L459.37 243.61L459.5 243.56L459.62 243.51L459.73 243.47L459.84 243.44L459.95 243.41L460.05 243.38L460.15 243.36L460.24 243.34L460.33 243.33L460.41 243.32L460.5 243.31L460.57 243.31L460.65 243.3L460.72 243.3L460.79 243.3L460.85 243.3L460.92 243.3L461.01 243.3L461.11 243.3L461.2 243.31L461.3 243.31L461.39 243.32L461.48 243.33L461.57 243.35L461.66 243.37L461.76 243.38L461.85 243.41L461.94 243.43L462.03 243.46L462.12 243.49L462.21 243.52L462.3 243.55L462.4 243.59L462.49 243.63L462.58 243.67L462.68 243.72L462.77 243.77L462.87 243.82L462.97 243.88L463.07 243.93L463.17 244L463.27 244.06L463.37 244.13L463.48 244.2L463.58 244.28L463.69 244.36L463.8 244.44L463.92 244.53L464.03 244.62L464.15 244.71L464.27 244.81L464.39 244.91L464.51 245.01L464.64 245.12L464.77 245.24L464.9 245.35L465.04 245.48L465.06 245.5L465.1 245.53L465.13 245.56L465.16 245.59L465.2 245.62L465.24 245.66L465.29 245.7L465.76 245.43L466.23 245.16L466.7 244.9L467.18 244.65L467.66 244.41L468.14 244.17L468.63 243.95L469.11 243.73L469.6 243.52L470.09 243.32L470.57 243.12L471.06 242.94L471.55 242.76L472.04 242.58L472.53 242.42L473.02 242.26L473.5 242.11L473.99 241.96L474.47 241.82L474.95 241.69L475.43 241.56L475.91 241.44L476.39 241.32L476.86 241.21L477.33 241.11L477.8 241.01L478.26 240.92L478.72 240.83L479.17 240.75L479.63 240.67L480.07 240.6L480.51 240.53L480.95 240.47L481.38 240.41L481.8 240.35L482.22 240.3L482.63 240.25L483.04 240.21L483.44 240.17L483.83 240.13L484.1 240.11L484.36 240.09L484.62 240.07L484.87 240.05L485.13 240.03L485.38 240.01L485.63 240L485.88 239.99L486.12 239.97L486.36 239.96L486.6 239.95L486.83 239.94L487.06 239.93L487.29 239.93L487.52 239.92L487.74 239.91L487.96 239.91L488.18 239.91L488.4 239.9L488.61 239.9L488.81 239.9L489.02 239.9L489.22 239.9L489.42 239.9ZM415.04 364.54L415.18 364.68L415.31 364.83L415.43 364.98L415.54 365.14L415.64 365.3L415.73 365.46L415.81 365.63L415.88 365.8L415.95 365.98L416 366.15L416.04 366.33L416.08 366.51L416.1 366.69L416.11 366.87L416.12 367.05L416.11 367.24L416.1 367.42L416.08 367.6L416.04 367.78L416 367.96L415.95 368.13L415.88 368.31L415.81 368.48L415.73 368.65L415.64 368.81L415.54 368.97L415.43 369.13L415.31 369.28L415.18 369.43L415.04 369.57L414.97 369.64L414.89 369.7L414.82 369.77L414.74 369.83L414.66 369.89L414.58 369.94L414.5 370L414.42 370.05L414.34 370.1L414.26 370.15L414.17 370.19L414.08 370.24L414 370.28L413.91 370.31L413.82 370.35L413.73 370.38L413.64 370.41L413.55 370.44L413.46 370.47L413.37 370.49L413.28 370.52L413.19 370.54L413.09 370.55L413 370.57L412.91 370.58L412.81 370.59L412.72 370.6L412.62 370.61L412.53 370.61L412.44 370.61L412.34 370.61L412.25 370.61L412.15 370.6L412.06 370.59L411.97 370.58L411.87 370.57L411.78 370.55L411.69 370.54L411.59 370.52L411.5 370.49L411.41 370.47L411.32 370.44L411.23 370.41L411.14 370.38L411.05 370.35L410.96 370.31L410.87 370.28L410.79 370.24L410.7 370.19L410.62 370.15L410.53 370.1L410.45 370.05L410.37 370L410.29 369.94L410.21 369.89L410.13 369.83L410.05 369.77L409.98 369.7L409.9 369.64L409.83 369.57L406.76 366.6L373.41 398.8L380.43 405.58L424.45 363.07L424.3 362.96L424.16 362.84L424.02 362.73L423.87 362.61L423.74 362.5L423.6 362.38L423.46 362.27L423.33 362.15L423.2 362.04L423.07 361.92L422.94 361.81L422.82 361.69L422.69 361.58L422.57 361.46L422.45 361.35L422.33 361.23L422.22 361.12L422.11 361.01L422 360.89L421.89 360.78L421.78 360.67L421.68 360.56L421.58 360.45L421.48 360.34L421.38 360.23L421.28 360.12L421.19 360.02L421.1 359.91L421.01 359.8L420.93 359.7L420.82 359.62L420.71 359.53L420.6 359.44L420.49 359.35L420.38 359.26L420.26 359.17L420.15 359.07L420.03 358.97L419.92 358.87L419.8 358.77L419.69 358.67L419.57 358.56L419.45 358.45L419.34 358.34L419.22 358.23L419.1 358.11L418.98 357.99L418.86 357.88L418.75 357.75L418.63 357.63L418.51 357.51L418.39 357.38L418.27 357.25L418.15 357.12L418.03 356.99L417.91 356.85L417.79 356.72L417.67 356.58L417.55 356.44L417.43 356.3L411.97 361.57L415.04 364.54ZM427.35 312.8L427.45 312.91L427.55 313.02L427.65 313.13L427.74 313.24L427.82 313.36L427.9 313.48L427.97 313.6L428.04 313.72L428.1 313.85L428.16 313.98L428.21 314.11L428.25 314.24L428.29 314.37L428.33 314.5L428.36 314.64L428.38 314.77L428.4 314.91L428.41 315.04L428.42 315.18L428.43 315.32L428.42 315.45L428.41 315.59L428.4 315.72L428.38 315.86L428.36 316L428.33 316.13L428.29 316.26L428.25 316.39L428.21 316.53L428.16 316.65L428.1 316.78L428.04 316.91L427.97 317.03L427.9 317.15L427.82 317.27L427.74 317.39L427.65 317.5L427.55 317.62L427.45 317.73L427.35 317.83L427.29 317.88L427.24 317.93L427.18 317.98L427.12 318.03L427.07 318.08L427.01 318.12L426.95 318.16L426.89 318.21L426.83 318.25L426.77 318.29L426.71 318.33L426.65 318.36L426.58 318.4L426.52 318.43L426.46 318.47L426.39 318.5L426.33 318.53L426.26 318.56L426.19 318.59L426.13 318.61L426.06 318.64L425.99 318.66L425.93 318.68L425.86 318.71L425.79 318.73L425.72 318.75L425.65 318.76L425.58 318.78L425.52 318.79L425.45 318.81L425.38 318.82L425.31 318.83L425.24 318.84L425.17 318.85L425.1 318.86L425.02 318.86L424.95 318.87L424.88 318.87L424.81 318.87L424.74 318.87L424.67 318.87L424.6 318.87L424.53 318.87L424.46 318.86L424.39 318.86L424.32 318.85L424.25 318.84L424.18 318.83L424.11 318.82L424.04 318.81L423.97 318.79L423.9 318.78L423.83 318.76L423.76 318.75L423.69 318.73L423.63 318.71L423.56 318.68L423.49 318.66L423.42 318.64L423.36 318.61L423.29 318.59L423.22 318.56L423.16 318.53L423.09 318.5L423.03 318.47L422.97 318.43L422.9 318.4L422.84 318.36L422.78 318.33L422.72 318.29L422.65 318.25L422.59 318.21L422.53 318.16L422.48 318.12L422.42 318.08L422.36 318.03L422.3 317.98L422.25 317.93L422.19 317.88L422.14 317.83L415.18 311.12L348.02 375.97L357.92 385.52L438.34 307.87L438.18 307.75L438.02 307.63L437.86 307.51L437.7 307.39L437.55 307.27L437.39 307.15L437.24 307.03L437.09 306.91L436.95 306.79L436.8 306.67L436.66 306.55L436.51 306.43L436.37 306.31L436.23 306.19L436.1 306.07L435.96 305.95L435.83 305.83L435.7 305.71L435.57 305.59L435.44 305.47L435.31 305.35L435.19 305.23L435.07 305.11L434.95 305L434.83 304.88L434.71 304.76L434.6 304.64L434.49 304.53L434.38 304.41L434.27 304.3L434.16 304.18L434.06 304.07L433.96 303.95L433.86 303.84L433.76 303.73L433.66 303.62L433.57 303.5L433.48 303.39L433.39 303.28L433.3 303.18L433.19 303.09L433.08 303.01L432.96 302.92L432.85 302.83L432.73 302.73L432.61 302.64L432.5 302.54L432.38 302.44L432.26 302.34L432.14 302.24L432.02 302.14L431.9 302.03L431.78 301.92L431.66 301.81L431.54 301.7L431.42 301.59L431.29 301.47L431.17 301.35L431.05 301.23L430.92 301.11L430.8 300.99L430.68 300.86L430.55 300.74L430.43 300.61L430.3 300.48L430.18 300.34L430.05 300.21L429.93 300.07L429.8 299.94L429.68 299.8L429.56 299.66L429.43 299.51L429.31 299.37L429.18 299.22L429.06 299.08L428.93 298.93L428.81 298.78L428.69 298.62L428.56 298.47L428.44 298.31L420.39 306.09L427.35 312.8ZM423.86 332.04L423.49 332.46L423.12 332.9L422.73 333.38L422.35 333.88L421.98 334.41L421.61 334.96L421.26 335.53L420.92 336.12L420.6 336.73L420.3 337.36L420.03 338L419.79 338.66L419.59 339.34L419.42 340.02L419.3 340.72L419.23 341.42L419.2 342.13L419.24 343.05L419.35 343.96L419.52 344.84L419.76 345.71L420.04 346.55L420.38 347.36L420.75 348.14L421.15 348.9L421.57 349.61L422.01 350.29L422.47 350.93L422.93 351.52L423.38 352.07L423.83 352.57L424.26 353.02L424.67 353.41L425.04 353.75L425.38 354.03L425.68 354.25L425.73 354.29L425.79 354.33L425.84 354.36L425.89 354.4L425.94 354.44L425.99 354.48L426.04 354.53L426.09 354.57L426.13 354.61L426.18 354.66L426.22 354.7L426.27 354.75L426.31 354.79L426.36 354.84L426.4 354.89L426.44 354.94L426.48 354.99L426.52 355.04L426.56 355.09L426.78 355.38L427.08 355.71L427.43 356.08L427.84 356.47L428.31 356.89L428.83 357.32L429.4 357.76L430.01 358.21L430.67 358.65L431.38 359.08L432.12 359.49L432.9 359.87L433.71 360.23L434.55 360.55L435.42 360.83L436.31 361.05L437.23 361.22L438.17 361.33L439.12 361.37L439.86 361.34L440.59 361.27L441.31 361.15L442.02 360.99L442.71 360.79L443.4 360.56L444.06 360.3L444.71 360.02L445.35 359.71L445.96 359.38L446.55 359.04L447.12 358.68L447.66 358.32L448.18 357.95L448.68 357.59L449.14 357.22L449.58 356.86L449.98 356.52L450.35 356.18L449.98 355.84L449.57 355.49L449.13 355.13L448.66 354.76L448.16 354.38L447.64 354.01L447.09 353.65L446.52 353.29L445.93 352.94L445.31 352.61L444.68 352.3L444.03 352.01L443.37 351.75L442.69 351.52L441.99 351.32L441.29 351.16L440.57 351.04L439.85 350.96L439.12 350.94L438.84 350.94L438.56 350.95L438.27 350.97L437.99 350.99L437.7 351.02L437.42 351.06L437.13 351.1L436.84 351.15L436.55 351.2L436.26 351.27L435.97 351.33L435.68 351.41L435.39 351.49L435.1 351.58L434.8 351.67L434.51 351.77L434.21 351.88L433.92 351.99L433.62 352.11L433.4 352.2L433.18 352.27L432.95 352.32L432.73 352.36L432.5 352.39L432.27 352.4L432.04 352.4L431.81 352.39L431.59 352.36L431.36 352.32L431.14 352.26L430.92 352.2L430.71 352.12L430.5 352.02L430.3 351.92L430.1 351.8L429.91 351.66L429.73 351.52L429.56 351.36L429.4 351.2L429.25 351.02L429.11 350.84L428.99 350.65L428.88 350.45L428.78 350.25L428.7 350.05L428.63 349.84L428.57 349.62L428.53 349.41L428.5 349.19L428.48 348.97L428.48 348.75L428.5 348.53L428.52 348.31L428.57 348.09L428.62 347.87L428.7 347.65L428.78 347.44L428.91 347.15L429.02 346.87L429.14 346.58L429.24 346.3L429.34 346.02L429.43 345.73L429.51 345.45L429.59 345.17L429.66 344.89L429.73 344.61L429.78 344.33L429.83 344.05L429.88 343.78L429.92 343.5L429.95 343.22L429.97 342.95L429.99 342.68L430 342.4L430 342.13L429.97 341.43L429.9 340.73L429.77 340.04L429.61 339.36L429.4 338.69L429.16 338.03L428.89 337.39L428.59 336.76L428.27 336.15L427.93 335.56L427.57 334.99L427.2 334.44L426.82 333.91L426.43 333.4L426.05 332.92L425.66 332.47L425.29 332.05L424.92 331.65L424.57 331.29L424.22 331.64L423.86 332.04ZM452.35 345.7L451.89 346.78L451.37 347.85L451.72 348.08L452.06 348.32L452.39 348.55L452.71 348.78L453 349L453.28 349.21L453.55 349.42L453.81 349.63L454.97 348.95L456.03 348.23L456.98 347.5L457.79 346.81L457.75 346.77L457.7 346.72L457.65 346.68L457.59 346.63L457.56 346.6L457.53 346.57L457.49 346.55L457.46 346.52L456.55 345.77L455.51 345L454.34 344.26L453.08 343.57L452.74 344.63L452.35 345.7ZM443.81 335.35L442.06 335.59L440.25 335.98L438.43 336.55L436.67 337.34L436.87 338.1L437.04 338.88L437.18 339.67L437.28 340.48L437.35 341.3L437.37 342.13L437.36 342.43L437.36 342.72L437.34 343.02L437.33 343.32L437.31 343.61L437.28 343.91L437.59 343.88L437.89 343.86L438.2 343.85L438.51 343.83L438.81 343.83L439.12 343.82L440.11 343.85L441.08 343.93L442.03 344.06L442.96 344.23L443.87 344.45L444.76 344.69L445.52 343.03L446.08 341.32L446.46 339.62L446.69 338L446.81 336.51L446.83 335.22L445.42 335.24L443.81 335.35ZM454.88 334.08L454.53 334.12L454.17 334.17L454.19 334.63L454.2 335.13L454.2 335.69L454.19 336.28L456.03 337.05L457.72 337.92L459.24 338.85L460.59 339.79L461.49 339.28L462.31 338.74L463.06 338.19L463.72 337.65L462.12 336.42L460.17 335.26L457.96 334.39L455.59 334.06L455.24 334.06L454.88 334.08ZM432.81 325.8L432.06 326.83L431.35 327.95L431.57 328.2L431.79 328.46L432.01 328.73L432.24 329.01L432.57 329.44L432.91 329.89L433.25 330.37L433.59 330.87L434.67 330.37L435.75 329.93L436.84 329.55L437.92 329.23L437.17 327.84L436.33 326.56L435.45 325.41L434.59 324.43L434.54 324.38L434.5 324.34L434.46 324.29L434.42 324.25L434.38 324.21L434.35 324.17L434.31 324.14L434.28 324.1L433.56 324.89L432.81 325.8ZM464.38 314.49L462.77 314.61L461.07 314.8L459.31 315.09L457.5 315.49L455.68 316L453.89 316.65L452.13 317.44L452.56 318.17L452.97 318.93L453.36 319.73L453.72 320.57L454.04 321.44L454.31 322.34L454.54 323.28L454.71 324.24L454.81 325.22L454.85 326.23L454.85 326.3L454.85 326.38L454.85 326.45L454.85 326.52L454.85 326.59L454.85 326.67L454.84 326.74L454.84 326.81L454.84 326.89L454.83 326.96L454.91 326.96L454.98 326.95L455.06 326.95L455.14 326.95L455.21 326.95L455.29 326.94L455.36 326.94L455.44 326.94L455.51 326.94L455.59 326.94L456.72 326.98L457.82 327.1L458.89 327.29L459.93 327.55L460.93 327.85L461.89 328.2L462.8 328.6L463.68 329.02L464.51 329.46L465.29 329.92L466.1 328.23L466.77 326.5L467.3 324.76L467.7 323.03L468 321.34L468.2 319.73L468.32 318.2L468.37 316.8L468.37 315.55L468.33 314.47L467.18 314.44L465.86 314.44L464.38 314.49ZM442.64 319.74L442.08 320.53L441.54 321.4L442.58 322.8L443.61 324.4L444.57 326.18L445.38 328.12L445.89 328.11L446.38 328.1L446.84 328.1L447.27 328.11L447.37 327.63L447.43 327.16L447.47 326.69L447.49 326.23L447.14 323.94L446.24 321.81L445.04 319.93L443.76 318.38L443.21 319.02L442.64 319.74ZM436.5 268.14L436.13 268.51L435.75 268.92L435.37 269.35L434.97 269.81L434.57 270.29L434.17 270.79L433.77 271.31L433.38 271.86L432.99 272.43L432.61 273.02L432.24 273.63L431.88 274.25L431.54 274.89L431.23 275.55L430.93 276.23L430.66 276.92L430.42 277.62L430.2 278.34L430.02 279.06L429.88 279.8L429.77 280.55L429.71 281.31L429.68 282.07L429.71 282.98L429.8 283.87L429.93 284.75L430.11 285.62L430.34 286.47L430.61 287.3L430.91 288.12L431.24 288.91L431.6 289.68L431.99 290.42L432.39 291.15L432.82 291.84L433.25 292.51L433.7 293.14L434.14 293.75L434.59 294.32L435.04 294.85L435.48 295.35L435.91 295.82L436.33 296.24L436.73 296.63L437.1 296.97L437.45 297.27L437.77 297.52L438.06 297.73L438.1 297.75L438.13 297.78L438.17 297.8L438.21 297.83L438.24 297.86L438.28 297.89L438.31 297.92L438.35 297.95L438.38 297.97L438.42 298L438.45 298.03L438.49 298.07L438.52 298.1L438.55 298.13L438.58 298.16L438.62 298.19L438.65 298.22L438.68 298.26L438.71 298.29L438.74 298.32L438.77 298.36L438.8 298.39L438.83 298.43L438.86 298.46L438.88 298.5L438.91 298.53L438.92 298.55L438.94 298.57L438.94 298.57L438.95 298.59L439.16 298.86L439.42 299.17L439.73 299.51L440.09 299.87L440.49 300.26L440.93 300.66L441.41 301.07L441.92 301.5L442.48 301.93L443.07 302.36L443.7 302.8L444.36 303.23L445.05 303.65L445.76 304.05L446.51 304.45L447.28 304.82L448.08 305.17L448.9 305.49L449.74 305.78L450.61 306.04L451.49 306.25L452.38 306.43L453.29 306.56L454.22 306.64L455.16 306.67L455.95 306.65L456.73 306.58L457.51 306.48L458.27 306.34L459.03 306.17L459.77 305.96L460.5 305.73L461.21 305.46L461.91 305.18L462.59 304.87L463.26 304.55L463.9 304.2L464.53 303.85L465.14 303.48L465.73 303.1L466.3 302.72L466.84 302.34L467.37 301.95L467.86 301.56L468.33 301.18L468.78 300.81L469.2 300.44L469.59 300.09L469.95 299.75L470.29 299.43L470.28 299.42L470.26 299.4L470.23 299.37L470.2 299.34L470.16 299.3L470.08 299.23L470.07 299.22L470.07 299.22L470.06 299.21L470.05 299.2L470.04 299.2L470.04 299.19L470.03 299.18L470.02 299.17L470.01 299.17L470.01 299.16L470 299.15L469.99 299.15L469.99 299.14L469.98 299.13L469.96 299.12L469.94 299.09L469.91 299.07L469.9 299.06L469.55 298.72L469.16 298.38L468.76 298.03L468.33 297.66L467.88 297.3L467.4 296.93L466.9 296.55L466.38 296.18L465.84 295.81L465.29 295.45L464.71 295.09L464.11 294.74L463.5 294.41L462.88 294.08L462.23 293.78L461.58 293.49L460.91 293.23L460.22 292.98L459.53 292.77L458.82 292.58L458.11 292.41L457.38 292.29L456.65 292.19L455.91 292.13L455.16 292.11L454.88 292.11L454.6 292.12L454.32 292.13L454.04 292.15L453.76 292.17L453.48 292.2L453.2 292.23L452.91 292.27L452.63 292.31L452.35 292.36L452.06 292.41L451.78 292.46L451.49 292.53L451.2 292.59L450.92 292.66L450.63 292.74L450.34 292.82L450.05 292.9L449.77 292.99L449.48 293.09L449.19 293.19L448.9 293.29L448.61 293.4L448.32 293.51L448.03 293.63L447.86 293.7L447.69 293.75L447.52 293.8L447.35 293.84L447.17 293.88L447 293.9L446.83 293.92L446.65 293.92L446.48 293.92L446.3 293.91L446.13 293.9L445.96 293.88L445.79 293.84L445.62 293.8L445.45 293.76L445.29 293.7L445.13 293.64L444.97 293.57L444.81 293.5L444.66 293.41L444.51 293.32L444.37 293.22L444.23 293.12L444.09 293L443.96 292.88L443.84 292.76L443.72 292.63L443.61 292.49L443.51 292.35L443.41 292.21L443.33 292.06L443.25 291.91L443.18 291.76L443.11 291.6L443.06 291.44L443.01 291.28L442.97 291.12L442.93 290.95L442.91 290.79L442.89 290.62L442.88 290.45L442.88 290.29L442.89 290.12L442.91 289.95L442.93 289.78L442.97 289.61L443.01 289.45L443.06 289.28L443.12 289.12L443.19 288.96L443.31 288.68L443.43 288.4L443.54 288.12L443.65 287.84L443.75 287.56L443.85 287.28L443.94 287L444.03 286.72L444.11 286.44L444.19 286.17L444.26 285.89L444.33 285.61L444.4 285.34L444.45 285.06L444.51 284.79L444.55 284.51L444.6 284.24L444.64 283.97L444.67 283.69L444.7 283.42L444.72 283.15L444.74 282.88L444.75 282.61L444.76 282.34L444.76 282.07L444.74 281.36L444.68 280.65L444.58 279.95L444.45 279.26L444.29 278.57L444.1 277.9L443.88 277.24L443.63 276.58L443.36 275.94L443.07 275.32L442.76 274.7L442.43 274.1L442.09 273.52L441.74 272.95L441.38 272.39L441 271.86L440.63 271.34L440.25 270.84L439.86 270.36L439.48 269.9L439.11 269.46L438.73 269.05L438.37 268.66L438.01 268.28L437.67 267.94L437.66 267.93L437.65 267.92L437.63 267.91L437.62 267.9L437.61 267.88L437.6 267.87L437.59 267.86L437.57 267.85L437.56 267.84L437.55 267.83L437.54 267.82L437.53 267.81L437.51 267.79L437.5 267.78L437.49 267.77L437.48 267.76L437.47 267.75L437.46 267.74L437.45 267.72L437.43 267.71L437.42 267.7L437.41 267.69L437.4 267.68L437.39 267.66L437.38 267.65L437.36 267.63L437.31 267.58L437.25 267.53L437.22 267.5L437.18 267.47L436.85 267.79L436.5 268.14ZM471.01 285.34L470.48 286.7L469.86 288.06L469.15 289.4L469.64 289.72L470.11 290.03L470.56 290.34L471 290.64L471.42 290.95L471.8 291.24L472.17 291.52L472.53 291.8L472.87 292.08L473.21 292.35L474.78 291.48L476.2 290.55L477.46 289.6L478.56 288.69L479.47 287.85L478.37 286.85L477.03 285.76L475.47 284.65L473.73 283.6L471.83 282.67L471.45 283.99L471.01 285.34ZM461.39 272.83L459.74 273.01L458.02 273.3L456.26 273.69L454.49 274.23L452.76 274.9L451.1 275.75L451.3 276.41L451.48 277.09L451.65 277.77L451.79 278.46L451.91 279.17L452 279.88L452.07 280.6L452.11 281.33L452.13 282.07L452.12 282.42L452.11 282.77L452.1 283.12L452.08 283.47L452.05 283.82L452.02 284.17L451.99 284.52L451.94 284.87L451.89 285.22L452.26 285.18L452.62 285.13L452.98 285.1L453.35 285.07L453.71 285.04L454.07 285.02L454.43 285.01L454.8 285L455.16 285L456.03 285.02L456.89 285.07L457.73 285.15L458.57 285.27L459.39 285.42L460.2 285.59L460.99 285.79L461.77 286.01L462.54 286.25L463.37 284.66L464.04 283.02L464.57 281.35L464.96 279.69L465.24 278.08L465.41 276.55L465.51 275.12L465.54 273.83L465.52 272.71L464.32 272.7L462.93 272.73L461.39 272.83ZM474.75 271.28L474.37 271.31L473.99 271.35L473.61 271.4L473.23 271.47L472.84 271.54L472.84 271.56L472.85 271.59L472.85 271.61L472.85 271.62L472.87 272.03L472.9 272.49L472.91 273L472.92 273.55L472.92 274.13L472.91 274.76L472.89 275.42L474.36 275.97L475.77 276.6L477.1 277.27L478.36 277.98L479.53 278.71L480.61 279.45L481.6 280.18L482.5 279.7L483.36 279.19L484.17 278.66L484.92 278.11L485.62 277.58L486.25 277.05L486.81 276.55L485.71 275.59L484.39 274.58L482.87 273.58L481.2 272.68L479.39 271.94L477.48 271.44L475.5 271.26L475.12 271.26L474.75 271.28ZM447.68 260.16L446.87 261.12L446.06 262.2L445.26 263.37L444.51 264.64L444.75 264.91L444.99 265.19L445.23 265.47L445.47 265.76L445.72 266.06L445.96 266.37L446.3 266.8L446.64 267.26L446.99 267.73L447.33 268.22L447.68 268.73L448.02 269.26L449.15 268.69L450.29 268.18L451.44 267.73L452.59 267.33L453.73 266.99L454.85 266.69L454.06 265L453.13 263.41L452.13 261.96L451.1 260.67L450.1 259.54L449.17 258.6L448.46 259.32L447.68 260.16ZM485.69 247.14L484.08 247.27L482.39 247.47L480.65 247.73L478.87 248.08L477.07 248.51L475.27 249.04L473.48 249.66L471.73 250.4L470.02 251.26L470.43 251.9L470.83 252.56L471.22 253.26L471.59 253.98L471.95 254.72L472.28 255.49L472.59 256.29L472.87 257.11L473.11 257.95L473.32 258.81L473.49 259.69L473.62 260.58L473.7 261.5L473.72 262.43L473.72 262.56L473.72 262.69L473.72 262.82L473.72 262.94L473.71 263.07L473.71 263.2L473.7 263.33L473.69 263.46L473.69 263.59L473.68 263.72L473.67 263.85L473.66 263.97L473.65 264.1L473.63 264.23L473.77 264.22L473.9 264.21L474.03 264.2L474.17 264.19L474.3 264.18L474.43 264.17L474.57 264.17L474.7 264.16L474.83 264.16L474.97 264.15L475.1 264.15L475.23 264.15L475.37 264.15L475.5 264.15L476.54 264.18L477.57 264.26L478.57 264.4L479.55 264.59L480.5 264.83L481.43 265.1L482.34 265.41L483.21 265.75L484.05 266.11L484.87 266.5L485.65 266.9L486.4 267.32L487.11 267.75L487.78 268.18L488.66 266.56L489.41 264.89L490.06 263.19L490.6 261.48L491.06 259.77L491.42 258.08L491.7 256.42L491.92 254.82L492.06 253.28L492.15 251.82L492.19 250.46L492.19 249.21L492.15 248.09L492.08 247.12L491.08 247.07L489.93 247.03L488.64 247.03L487.22 247.06L485.69 247.14ZM459.81 252.66L459.26 253.33L458.7 254.06L458.15 254.84L457.62 255.67L457.12 256.54L457.92 257.56L458.73 258.67L459.54 259.89L460.31 261.2L461.04 262.6L461.71 264.07L462.28 265.63L462.88 265.6L463.46 265.59L464.01 265.58L464.53 265.58L465.02 265.58L465.48 265.59L465.91 265.61L466.03 265.15L466.13 264.69L466.21 264.23L466.27 263.78L466.32 263.33L466.35 262.88L466.36 262.43L466.17 260.52L465.65 258.67L464.89 256.93L463.95 255.31L462.92 253.85L461.87 252.57L460.88 251.51L460.36 252.05L459.81 252.66Z" id="a1vrRmLPT"></path></defs><g><g><g><use xlink:href="#bHIERJsqI" opacity="1" fill="#bec2ba" fill-opacity="1"></use></g><g><use xlink:href="#aycg9YxHK" opacity="1" fill="#dbded8" fill-opacity="1"></use></g><g><use xlink:href="#c1GW5ASQjF" opacity="1" fill="#dbb03d" fill-opacity="1"></use><g><use xlink:href="#c1GW5ASQjF" opacity="1" fill-opacity="0" stroke="#000000" stroke-width="7" stroke-opacity="1"></use></g></g><g><use xlink:href="#a35lxVzHa8" opacity="1" fill="#000000" fill-opacity="1"></use><g><use xlink:href="#a35lxVzHa8" opacity="1" fill-opacity="0" stroke="#000000" stroke-width="1" stroke-opacity="0"></use></g></g><g><use xlink:href="#f8i62NVnLh" opacity="1" fill="#000000" fill-opacity="1"></use><g><use xlink:href="#f8i62NVnLh" opacity="1" fill-opacity="0" stroke="#000000" stroke-width="1" stroke-opacity="0"></use></g></g><g><use xlink:href="#i11pDt3rTv" opacity="1" fill="#93d963" fill-opacity="1"></use><g><use xlink:href="#i11pDt3rTv" opacity="1" fill-opacity="0" stroke="#000000" stroke-width="7" stroke-opacity="1"></use></g></g><g><use xlink:href="#e1s5DRddAD" opacity="1" fill="#73bf73" fill-opacity="1"></use><g><use xlink:href="#e1s5DRddAD" opacity="1" fill-opacity="0" stroke="#000000" stroke-width="1" stroke-opacity="0"></use></g></g><g><use xlink:href="#a1co4y1l6P" opacity="1" fill="#a75a20" fill-opacity="1"></use><g><use xlink:href="#a1co4y1l6P" opacity="1" fill-opacity="0" stroke="#000000" stroke-width="7" stroke-opacity="1"></use></g></g><g><use xlink:href="#b5YNyKG44W" opacity="1" fill="#743c16" fill-opacity="1"></use><g><use xlink:href="#b5YNyKG44W" opacity="1" fill-opacity="0" stroke="#000000" stroke-width="1" stroke-opacity="0"></use></g></g><g><use xlink:href="#h2c064K9x" opacity="1" fill="#7bea3a" fill-opacity="1"></use><g><use xlink:href="#h2c064K9x" opacity="1" fill-opacity="0" stroke="#000000" stroke-width="1" stroke-opacity="0"></use></g></g><g><use xlink:href="#b2rYhRginN" opacity="1" fill="#7bea3a" fill-opacity="1"></use><g><use xlink:href="#b2rYhRginN" opacity="1" fill-opacity="0" stroke="#000000" stroke-width="1" stroke-opacity="0"></use></g></g><g><use xlink:href="#d40Ld6cOub" opacity="1" fill="#7bea3a" fill-opacity="1"></use><g><use xlink:href="#d40Ld6cOub" opacity="1" fill-opacity="0" stroke="#000000" stroke-width="1" stroke-opacity="0"></use></g></g><g><use xlink:href="#bzaEDeoJM" opacity="1" fill="#7bea3a" fill-opacity="1"></use><g><use xlink:href="#bzaEDeoJM" opacity="1" fill-opacity="0" stroke="#000000" stroke-width="1" stroke-opacity="0"></use></g></g><g><use xlink:href="#b4WRGmF8Q" opacity="1" fill="#7bea3a" fill-opacity="1"></use><g><use xlink:href="#b4WRGmF8Q" opacity="1" fill-opacity="0" stroke="#000000" stroke-width="1" stroke-opacity="0"></use></g></g><g><use xlink:href="#b2snfeJo7x" opacity="1" fill="#7bea3a" fill-opacity="1"></use><g><use xlink:href="#b2snfeJo7x" opacity="1" fill-opacity="0" stroke="#000000" stroke-width="1" stroke-opacity="0"></use></g></g><g><use xlink:href="#adfWI0diX" opacity="1" fill="#7bea3a" fill-opacity="1"></use><g><use xlink:href="#adfWI0diX" opacity="1" fill-opacity="0" stroke="#000000" stroke-width="1" stroke-opacity="0"></use></g></g><g><use xlink:href="#b17WJawHm" opacity="1" fill="#26850f" fill-opacity="1"></use><g><use xlink:href="#b17WJawHm" opacity="1" fill-opacity="0" stroke="#000000" stroke-width="1" stroke-opacity="0"></use></g></g><g><use xlink:href="#i3jzKYrYd" opacity="1" fill="#7bea3a" fill-opacity="1"></use><g><use xlink:href="#i3jzKYrYd" opacity="1" fill-opacity="0" stroke="#000000" stroke-width="1" stroke-opacity="0"></use></g></g><g><use xlink:href="#aBtCdkcjK" opacity="1" fill="#7bea3a" fill-opacity="1"></use><g><use xlink:href="#aBtCdkcjK" opacity="1" fill-opacity="0" stroke="#000000" stroke-width="1" stroke-opacity="0"></use></g></g><g><use xlink:href="#g2ksAaMoh" opacity="1" fill="#7bea3a" fill-opacity="1"></use><g><use xlink:href="#g2ksAaMoh" opacity="1" fill-opacity="0" stroke="#000000" stroke-width="1" stroke-opacity="0"></use></g></g><g><use xlink:href="#aYh4bfpZs" opacity="1" fill="#7bea3a" fill-opacity="1"></use><g><use xlink:href="#aYh4bfpZs" opacity="1" fill-opacity="0" stroke="#000000" stroke-width="1" stroke-opacity="0"></use></g></g><g><use xlink:href="#f3gqvXgrqL" opacity="1" fill="#7bea3a" fill-opacity="1"></use><g><use xlink:href="#f3gqvXgrqL" opacity="1" fill-opacity="0" stroke="#000000" stroke-width="1" stroke-opacity="0"></use></g></g><g><use xlink:href="#b8tEbfEfb" opacity="1" fill="#7bea3a" fill-opacity="1"></use><g><use xlink:href="#b8tEbfEfb" opacity="1" fill-opacity="0" stroke="#000000" stroke-width="1" stroke-opacity="0"></use></g></g><g><use xlink:href="#e7Ak1yxiJt" opacity="1" fill="#7bea3a" fill-opacity="1"></use><g><use xlink:href="#e7Ak1yxiJt" opacity="1" fill-opacity="0" stroke="#000000" stroke-width="1" stroke-opacity="0"></use></g></g><g><use xlink:href="#bapOkDli" opacity="1" fill="#26850f" fill-opacity="1"></use><g><use xlink:href="#bapOkDli" opacity="1" fill-opacity="0" stroke="#000000" stroke-width="1" stroke-opacity="0"></use></g></g><g><use xlink:href="#a1vrRmLPT" opacity="1" fill="#000000" fill-opacity="1"></use><g><use xlink:href="#a1vrRmLPT" opacity="1" fill-opacity="0" stroke="#000000" stroke-width="1" stroke-opacity="0"></use></g></g></g></g></svg>