<?xml version="1.0" encoding="UTF-8" standalone="no"?>
<!DOCTYPE svg PUBLIC "-//W3C//DTD SVG 1.1//EN" "http://www.w3.org/Graphics/SVG/1.1/DTD/svg11.dtd">
<svg version="1.1" xmlns="http://www.w3.org/2000/svg" xmlns:xlink="http://www.w3.org/1999/xlink" preserveAspectRatio="xMidYMid meet" viewBox="0 0 640 640" width="640" height="640"><defs><path d="M545.26 323.95C545.26 447.55 442.2 547.89 315.26 547.89C188.32 547.89 85.26 447.55 85.26 323.95C85.26 200.35 188.32 100 315.26 100C442.2 100 545.26 200.35 545.26 323.95Z" id="adwzwzkjr"></path><path d="M511.58 323.95C511.58 432.15 423.61 520 315.26 520C206.91 520 118.95 432.15 118.95 323.95C118.95 215.74 206.91 127.89 315.26 127.89C423.61 127.89 511.58 215.74 511.58 323.95Z" id="b1v2gKlMNH"></path><path d="M346.32 320C346.32 334.52 334.05 346.32 318.95 346.32C303.84 346.32 291.58 334.52 291.58 320C291.58 305.48 303.84 293.68 318.95 293.68C334.05 293.68 346.32 305.48 346.32 320Z" id="dHDazDQrR"></path></defs><g><g><g><use xlink:href="#adwzwzkjr" opacity="1" fill="#bec2ba" fill-opacity="1"></use></g><g><use xlink:href="#b1v2gKlMNH" opacity="1" fill="#dbded8" fill-opacity="1"></use></g><g><use xlink:href="#dHDazDQrR" opacity="1" fill="#8e908b" fill-opacity="1"></use></g></g></g></svg>