<?xml version="1.0" encoding="UTF-8" standalone="no"?>
<!DOCTYPE svg PUBLIC "-//W3C//DTD SVG 1.1//EN" "http://www.w3.org/Graphics/SVG/1.1/DTD/svg11.dtd">
<svg version="1.1" xmlns="http://www.w3.org/2000/svg" xmlns:xlink="http://www.w3.org/1999/xlink" preserveAspectRatio="xMidYMid meet" viewBox="0 0 640 640" width="640" height="640"><defs><path d="M545.26 323.95C545.26 447.55 442.2 547.89 315.26 547.89C188.32 547.89 85.26 447.55 85.26 323.95C85.26 200.35 188.32 100 315.26 100C442.2 100 545.26 200.35 545.26 323.95Z" id="a22gPs2qAU"></path><path d="M513.85 320.62C513.85 428.83 425.89 516.67 317.54 516.67C209.19 516.67 121.22 428.83 121.22 320.62C121.22 212.42 209.19 124.57 317.54 124.57C425.89 124.57 513.85 212.42 513.85 320.62Z" id="a2pYEtjlgU"></path><path d="M477.44 315.56L504.66 294.57L462.85 348.94L508.75 309.71L445.67 352.75L455.37 281.13L443.26 337.43L464.05 278.67L465.33 308.44L490.9 278.79L477.44 315.56Z" id="b1uvfnvj00"></path><path d="M454.8 226.62C459.75 233.13 458.5 242.42 452 247.37C440.11 256.44 416.2 274.67 404.3 283.74C397.74 288.75 388.39 287.64 383.18 281.24C380.16 277.54 380.45 277.89 377.43 274.18C372.29 267.87 373.3 258.57 379.68 253.51C391.61 244.07 415.76 224.93 427.69 215.48C434.06 210.43 443.34 211.6 448.27 218.06C451.37 222.13 451.69 222.56 454.8 226.62Z" id="b3vm3xTkH"></path><path d="M430.39 342.88C440.32 335.68 452.92 333.2 464.84 336.1C468.92 337.09 462.82 335.61 467.01 336.63C473.77 338.27 475.19 347.25 469.28 350.91C421.62 380.37 295 458.65 247.44 488.05C245.53 489.23 243.55 486.63 245.21 485.1C253.29 477.65 263.68 468.07 271.85 460.53C271.85 460.53 300.78 436.84 300.78 436.84C329.84 415.77 401.43 363.87 430.39 342.88Z" id="aDUPsqlvf"></path><path d="M410.02 180.71C414.98 187.22 413.73 196.51 407.23 201.46C395.33 210.53 371.43 228.77 359.53 237.83C352.97 242.84 343.62 241.73 338.41 235.33C335.39 231.63 335.68 231.98 332.66 228.28C327.51 221.96 328.53 212.66 334.91 207.6C346.83 198.16 370.99 179.02 382.91 169.57C389.29 164.52 398.56 165.69 403.49 172.15C406.6 176.22 406.92 176.65 410.02 180.71Z" id="a9oZ1uI7pu"></path><path d="M468.27 222.86C475.28 232.94 471.88 247.43 460.69 255.2C460.27 255.5 459.84 255.78 459.4 256.04C462.76 264.51 460.78 273.83 454.01 278.53C454.01 278.53 454.01 278.53 454.01 278.53C445.89 284.17 433.97 281.04 427.38 271.55C424.39 267.24 400.44 232.76 397.45 228.45C390.86 218.96 392.09 206.7 400.21 201.06C400.21 201.06 400.21 201.06 400.21 201.06C407.29 196.15 417.25 197.89 424.06 204.71C432.22 200.08 442.26 201.76 447.19 208.85C448.27 210.41 449.02 212.11 449.46 213.88C456.9 213.63 464.01 216.73 468.27 222.86Z" id="b2kJGI1cLb"></path><path d="M420.09 180.36C427.09 190.44 423.7 204.93 412.5 212.7C412.08 213 411.65 213.28 411.22 213.54C414.58 222.01 412.6 231.33 405.83 236.03C405.83 236.03 405.83 236.03 405.83 236.03C397.71 241.67 385.79 238.54 379.2 229.05C376.2 224.74 352.26 190.26 349.26 185.95C342.67 176.46 343.91 164.2 352.03 158.56C352.03 158.56 352.03 158.56 352.03 158.56C359.1 153.65 369.07 155.39 375.88 162.21C384.03 157.58 394.08 159.26 399 166.35C400.09 167.91 400.84 169.61 401.28 171.38C408.72 171.13 415.83 174.23 420.09 180.36Z" id="b1yPYHFKAx"></path><path d="M357.27 273.46C365.46 276 372.5 281.34 377.15 288.54C377.8 289.56 379.45 292.11 382.07 296.19C377.63 298.04 374.85 299.2 373.74 299.66C365.82 302.96 357 303.38 348.8 300.85C357.26 303.46 310.81 289.1 209.47 257.76C201.03 255.15 189.08 254.01 191.08 247.06C191.1 246.99 185.83 241.17 186.98 237.45C187.23 236.65 188.78 235.25 191.64 233.24C198.49 228.42 207.19 227.05 215.19 229.53C246.14 239.1 326.32 263.89 357.27 273.46Z" id="b96mH7697Q"></path><path d="M242.27 237.16C242.27 244.37 236.16 250.23 228.64 250.23C221.11 250.23 215 244.37 215 237.16C215 229.95 221.11 224.09 228.64 224.09C236.16 224.09 242.27 229.95 242.27 237.16Z" id="f1JmQgCA9V"></path><path d="M262.05 242.16C262.05 249.37 255.94 255.23 248.41 255.23C240.88 255.23 234.77 249.37 234.77 242.16C234.77 234.95 240.88 229.09 248.41 229.09C255.94 229.09 262.05 234.95 262.05 242.16Z" id="amD8P8FXo"></path><path d="M284.55 246.48C284.55 253.69 278.44 259.55 270.91 259.55C263.38 259.55 257.27 253.69 257.27 246.48C257.27 239.26 263.38 233.41 270.91 233.41C278.44 233.41 284.55 239.26 284.55 246.48Z" id="igJlO5NTL"></path><path d="M304.32 253.75C304.32 260.96 298.21 266.82 290.68 266.82C283.16 266.82 277.05 260.96 277.05 253.75C277.05 246.54 283.16 240.68 290.68 240.68C298.21 240.68 304.32 246.54 304.32 253.75Z" id="bc6FfycK"></path><path d="M327.27 261.93C327.27 269.14 321.16 275 313.64 275C306.11 275 300 269.14 300 261.93C300 254.72 306.11 248.86 313.64 248.86C321.16 248.86 327.27 254.72 327.27 261.93Z" id="dfDJs6pDW"></path><path d="M329.22 285.3C322.03 284.77 316.64 278.25 317.19 270.74C317.75 263.23 324.04 257.57 331.23 258.11C338.43 258.64 343.82 265.16 343.26 272.67C342.7 280.17 336.41 285.84 329.22 285.3Z" id="b5XDRiVZCs"></path><path d="M180.68 400.63C172.08 362.35 141.41 351.2 153 321.88C164.6 292.55 189.66 243.66 227.05 283.33C264.44 322.99 334.2 318.96 345.4 350.82C352.86 372.06 328.34 392.04 271.83 410.76L240.45 419.35C206.33 432.4 186.41 426.16 180.68 400.63Z" id="f4nJH8TdEl"></path><path d="M220 328.13C220 336.91 212.87 344.04 204.09 344.04C195.31 344.04 188.18 336.91 188.18 328.13C188.18 319.35 195.31 312.22 204.09 312.22C212.87 312.22 220 319.35 220 328.13Z" id="e5vbJgo3We"></path></defs><g><g><g><use xlink:href="#a22gPs2qAU" opacity="1" fill="#bec2ba" fill-opacity="1"></use></g><g><use xlink:href="#a2pYEtjlgU" opacity="1" fill="#dbded8" fill-opacity="1"></use></g><g><use xlink:href="#b1uvfnvj00" opacity="1" fill="#1a7716" fill-opacity="1"></use><g><use xlink:href="#b1uvfnvj00" opacity="1" fill-opacity="0" stroke="#000000" stroke-width="8" stroke-opacity="1"></use></g></g><g><use xlink:href="#b3vm3xTkH" opacity="1" fill="#2e7d4b" fill-opacity="1"></use><g><use xlink:href="#b3vm3xTkH" opacity="1" fill-opacity="0" stroke="#000000" stroke-width="7" stroke-opacity="1"></use></g></g><g><use xlink:href="#aDUPsqlvf" opacity="1" fill="#fd8f31" fill-opacity="1"></use><g><use xlink:href="#aDUPsqlvf" opacity="1" fill-opacity="0" stroke="#000000" stroke-width="8" stroke-opacity="1"></use></g></g><g><use xlink:href="#a9oZ1uI7pu" opacity="1" fill="#2e7d4b" fill-opacity="1"></use><g><use xlink:href="#a9oZ1uI7pu" opacity="1" fill-opacity="0" stroke="#000000" stroke-width="7" stroke-opacity="1"></use></g></g><g><use xlink:href="#b2kJGI1cLb" opacity="1" fill="#46c373" fill-opacity="1"></use><g><use xlink:href="#b2kJGI1cLb" opacity="1" fill-opacity="0" stroke="#000000" stroke-width="7" stroke-opacity="1"></use></g></g><g><use xlink:href="#b1yPYHFKAx" opacity="1" fill="#46c373" fill-opacity="1"></use><g><use xlink:href="#b1yPYHFKAx" opacity="1" fill-opacity="0" stroke="#000000" stroke-width="7" stroke-opacity="1"></use></g></g><g><use xlink:href="#b96mH7697Q" opacity="1" fill="#3ba160" fill-opacity="1"></use><g><use xlink:href="#b96mH7697Q" opacity="1" fill-opacity="0" stroke="#000000" stroke-width="8" stroke-opacity="1"></use></g></g><g><use xlink:href="#f1JmQgCA9V" opacity="1" fill="#29ba5e" fill-opacity="1"></use><g><use xlink:href="#f1JmQgCA9V" opacity="1" fill-opacity="0" stroke="#000000" stroke-width="7" stroke-opacity="1"></use></g></g><g><use xlink:href="#amD8P8FXo" opacity="1" fill="#29ba5e" fill-opacity="1"></use><g><use xlink:href="#amD8P8FXo" opacity="1" fill-opacity="0" stroke="#000000" stroke-width="7" stroke-opacity="1"></use></g></g><g><use xlink:href="#igJlO5NTL" opacity="1" fill="#29ba5e" fill-opacity="1"></use><g><use xlink:href="#igJlO5NTL" opacity="1" fill-opacity="0" stroke="#000000" stroke-width="7" stroke-opacity="1"></use></g></g><g><use xlink:href="#bc6FfycK" opacity="1" fill="#29ba5e" fill-opacity="1"></use><g><use xlink:href="#bc6FfycK" opacity="1" fill-opacity="0" stroke="#000000" stroke-width="7" stroke-opacity="1"></use></g></g><g><use xlink:href="#dfDJs6pDW" opacity="1" fill="#29ba5e" fill-opacity="1"></use><g><use xlink:href="#dfDJs6pDW" opacity="1" fill-opacity="0" stroke="#000000" stroke-width="7" stroke-opacity="1"></use></g></g><g><use xlink:href="#b5XDRiVZCs" opacity="1" fill="#29ba5e" fill-opacity="1"></use><g><use xlink:href="#b5XDRiVZCs" opacity="1" fill-opacity="0" stroke="#000000" stroke-width="7" stroke-opacity="1"></use></g></g><g><use xlink:href="#f4nJH8TdEl" opacity="1" fill="#66381c" fill-opacity="1"></use><g><use xlink:href="#f4nJH8TdEl" opacity="1" fill-opacity="0" stroke="#000000" stroke-width="8" stroke-opacity="1"></use></g></g><g><use xlink:href="#e5vbJgo3We" opacity="1" fill="#ffffff" fill-opacity="1"></use><g><use xlink:href="#e5vbJgo3We" opacity="1" fill-opacity="0" stroke="#000000" stroke-width="8" stroke-opacity="1"></use></g></g></g></g></svg>