<?xml version="1.0" encoding="UTF-8" standalone="no"?>
<!DOCTYPE svg PUBLIC "-//W3C//DTD SVG 1.1//EN" "http://www.w3.org/Graphics/SVG/1.1/DTD/svg11.dtd">
<svg version="1.1" xmlns="http://www.w3.org/2000/svg" xmlns:xlink="http://www.w3.org/1999/xlink" preserveAspectRatio="xMidYMid meet" viewBox="0 0 640 640" width="640" height="640"><defs><path d="M545.26 323.95C545.26 447.55 442.2 547.89 315.26 547.89C188.32 547.89 85.26 447.55 85.26 323.95C85.26 200.35 188.32 100 315.26 100C442.2 100 545.26 200.35 545.26 323.95Z" id="adwzwzkjr"></path><path d="M511.58 322.89C511.58 431.1 423.61 518.95 315.26 518.95C206.91 518.95 118.95 431.1 118.95 322.89C118.95 214.69 206.91 126.84 315.26 126.84C423.61 126.84 511.58 214.69 511.58 322.89Z" id="a3jzfT7v35"></path><path d="M260.29 279.59C300.62 222.71 325.82 187.16 335.91 172.94C340.46 166.52 350.13 166.96 354.08 173.77C361.15 185.98 378.85 216.49 407.16 265.31C432.62 309.23 448.54 336.68 454.91 347.66C461.35 358.76 454.14 372.8 441.36 374.05C425.42 375.6 385.57 379.48 321.81 385.68C256.2 392.06 215.19 396.05 198.79 397.64C189.46 398.55 183.38 388.07 188.8 380.42C198.34 366.98 222.17 333.37 260.29 279.59Z" id="a2qlnrONJ0"></path><path d="M424.04 344.56C436.17 342.67 448.51 346.2 457.81 354.21C460.98 356.95 456.23 352.85 459.5 355.66C464.77 360.21 461.95 368.85 455.02 369.41C399.17 373.95 250.79 386.01 195.07 390.54C192.83 390.72 192.25 387.5 194.42 386.9C205.01 383.94 218.62 380.14 229.33 377.15C229.33 377.15 265.88 369.22 265.88 369.22C301.33 363.69 388.71 350.07 424.04 344.56Z" id="azYEY64B0"></path><path d="M311.2 199.39C315.63 187.22 318.4 179.62 319.5 176.57C325.02 161.44 345.31 158.82 354.48 172.06C364.85 187.01 382.46 212.43 394.92 230.4C394.92 230.4 416.72 263.92 416.72 263.92C431.69 288.51 457.65 331.14 470.49 352.21C478.91 366.04 467.46 383.44 451.43 381.17C448.56 380.77 441.38 379.75 429.89 378.13C409.83 348 397.29 329.16 392.28 321.63C392.28 321.63 340.45 243.57 340.45 243.57C336.55 237.68 326.8 222.95 311.2 199.39Z" id="fhWGtLdAc"></path><path d="M333.68 264.74C333.68 275.19 324.96 283.68 314.21 283.68C303.46 283.68 294.74 275.19 294.74 264.74C294.74 254.28 303.46 245.79 314.21 245.79C324.96 245.79 333.68 254.28 333.68 264.74Z" id="f1JH0K0Yu0"></path><path d="M286.32 344.74C286.32 355.19 277.59 363.68 266.84 363.68C256.09 363.68 247.37 355.19 247.37 344.74C247.37 334.28 256.09 325.79 266.84 325.79C277.59 325.79 286.32 334.28 286.32 344.74Z" id="a34cD31sqG"></path><path d="M327.66 333.74C326.3 329.73 315.49 329.1 315.78 321.63C315.94 317.63 319.22 312.69 325.62 306.8C327.66 304.93 330.43 304.06 333.17 304.42C335.69 304.76 339.57 305.27 342.25 305.63C344.49 305.93 346.52 307.07 347.93 308.83C352.58 314.63 354.84 319.33 354.72 322.92C354.49 329.53 347.42 327.11 344.81 332.51C343.39 335.45 343.13 339.16 344.02 343.62C344.24 344.74 343.38 345.79 342.24 345.79C339.52 345.79 333.55 345.79 330.82 345.79C329.67 345.79 328.79 344.75 328.98 343.61C329.43 340.96 328.99 337.67 327.66 333.74Z" id="b6zMjFlOyU"></path></defs><g><g><g><use xlink:href="#adwzwzkjr" opacity="1" fill="#bec2ba" fill-opacity="1"></use></g><g><use xlink:href="#a3jzfT7v35" opacity="1" fill="#dbded8" fill-opacity="1"></use></g><g><use xlink:href="#a2qlnrONJ0" opacity="1" fill="#efa335" fill-opacity="1"></use><g><use xlink:href="#a2qlnrONJ0" opacity="1" fill-opacity="0" stroke="#000000" stroke-width="9" stroke-opacity="1"></use></g></g><g><use xlink:href="#azYEY64B0" opacity="1" fill="#fd8f31" fill-opacity="1"></use></g><g><use xlink:href="#fhWGtLdAc" opacity="1" fill="#fccf3f" fill-opacity="1"></use><g><use xlink:href="#fhWGtLdAc" opacity="1" fill-opacity="0" stroke="#000000" stroke-width="7" stroke-opacity="1"></use></g></g><g><use xlink:href="#f1JH0K0Yu0" opacity="1" fill="#fc4e51" fill-opacity="1"></use><g><use xlink:href="#f1JH0K0Yu0" opacity="1" fill-opacity="0" stroke="#000000" stroke-width="7" stroke-opacity="1"></use></g></g><g><use xlink:href="#a34cD31sqG" opacity="1" fill="#fc4e51" fill-opacity="1"></use><g><use xlink:href="#a34cD31sqG" opacity="1" fill-opacity="0" stroke="#000000" stroke-width="7" stroke-opacity="1"></use></g></g><g><use xlink:href="#b6zMjFlOyU" opacity="1" fill="#ffffff" fill-opacity="1"></use><g><use xlink:href="#b6zMjFlOyU" opacity="1" fill-opacity="0" stroke="#000000" stroke-width="7" stroke-opacity="1"></use></g></g></g></g></svg>